<?xml version="1.0"?>
<svg version="1.1" xmlns="http://www.w3.org/2000/svg" width="430" height="200" style="border: dashed 2px #aaa"><path fill="#078ceb" d="M28.87,100.57l0,2.85l-5.51,0l0,12.198c0,1.748,0.836,2.318,1.9,2.318c0.912,0,1.976-0.418,2.964-0.95l1.026,2.014c-1.71,1.254-3.42,1.9-5.32,1.9c-2.28,0-4.37-1.254-4.37-5.51l0-11.97l-3.8,0l0-2.47l3.8-0.38l0-4.788l3.8-0.76l0,5.548l5.51,0z M40.5968,91.26l0,11.476c1.178-0.988,3.838-2.736,6.65-2.736c4.18,0,6.08,2.66,6.08,6.84l0,10.64l2.85,0.95l0,2.09l-9.12,0l0-2.09l2.47-0.912l0-10.298c0-2.66-0.836-3.99-3.306-3.99c-3.23,0-5.624,3.04-5.624,3.04l0,11.21l2.47,0.95l0,2.09l-9.5,0l0-2.09l3.23-0.95l0-23.18l-3.23-0.76l0-2.09z M78.5436,111.02l-13.11,0c0,4.18,2.242,6.84,5.51,6.84c3.8,0,6.384-2.09,6.384-2.09l1.33,1.976s-3.534,3.154-8.094,3.154c-6.08,0-9.12-3.99-9.12-10.26c0-6.08,3.8-10.64,9.31-10.64s7.98,3.23,7.98,8.93c0,0.95-0.19,2.014-0.19,2.09z M65.5856,108.17l9.12,0c0-2.85-1.102-5.206-4.142-5.206s-4.75,2.356-4.978,5.206z"/><path fill="#1f97ed" d="M107.2744,118.756c0,0.432-0.288,0.684-0.72,0.684l-1.728,0c-1.872,0-2.7-0.9-2.952-2.124l-0.072,0c-0.9,1.332-3.24,2.556-5.22,2.556c-5.076,0-7.38-4.176-7.38-8.856c0-6.228,3.744-9.504,7.776-9.504c1.908,0,3.708,0.864,4.608,2.088l0.072-0.972c0.036-0.396,0.324-0.648,0.756-0.648l2.52,0c0.468,0,0.756,0.252,0.756,0.792l0,12.492c0,0.504,0.072,0.864,0.216,1.044c0.108,0.108,0.252,0.144,0.432,0.144l0.288,0c0.432,0,0.648,0.144,0.648,0.612l0,1.692z M101.3344,113.86l0-6.948c-0.72-1.044-2.196-1.836-3.564-1.836c-2.196,0-4.068,1.872-4.068,5.652c0,3.024,1.152,5.58,3.816,5.58c1.764,0,3.276-1.332,3.816-2.448z M135.6964,102.448c0,0.108,0,0.18-0.036,0.288l-4.824,15.84c-0.18,0.54-0.468,0.864-1.116,0.864l-2.448,0c-0.648,0-0.936-0.324-1.116-0.9l-2.988-10.26l-0.072,0l-2.952,10.332c-0.18,0.576-0.504,0.828-1.152,0.828l-2.412,0c-0.576,0-0.972-0.36-1.116-0.864l-4.716-15.84c-0.036-0.108-0.036-0.216-0.036-0.288c0-0.324,0.252-0.468,0.72-0.468l2.952,0c0.684,0,0.9,0.252,1.008,0.684l2.592,11.376l0.036,0l3.348-11.34c0.144-0.54,0.504-0.72,0.972-0.72l2.016,0c0.54,0,0.864,0.18,0.972,0.612l3.276,11.52l0.036,0l2.7-11.34c0.108-0.504,0.396-0.792,1.044-0.792l2.772,0c0.432,0,0.54,0.216,0.54,0.468z M155.8384,110.656c0,0.864-0.288,1.044-1.188,1.044l-10.548,0c0.288,2.772,2.304,4.68,5.148,4.68c1.512,0,3.096-0.36,4.428-0.864c0.144-0.036,0.252-0.108,0.396-0.108c0.252,0,0.432,0.144,0.504,0.432l0.504,1.836c0.036,0.18,0.072,0.324,0.072,0.432c0,0.252-0.144,0.432-0.576,0.612c-1.764,0.792-4.176,1.152-6.048,1.152c-5.652,0-9-3.6-9-9.216c0-5.4,3.564-9.144,8.928-9.144c2.196,0,3.996,0.828,5.256,2.16c1.656,1.728,2.124,3.996,2.124,6.444l0,0.54z M151.5544,108.856l0-0.396c-0.072-1.872-1.152-3.6-3.348-3.6c-2.34,0-3.744,1.872-4.032,3.996l7.38,0z M172.8844,114.292c0,3.78-3.276,5.58-6.948,5.58c-1.872,0-3.924-0.54-5.544-1.26c-0.324-0.144-0.432-0.36-0.432-0.576c0-0.108,0.036-0.216,0.072-0.324l0.576-1.836c0.108-0.36,0.288-0.504,0.504-0.504c0.108,0,0.216,0,0.396,0.072c1.584,0.648,3.276,1.116,4.536,1.116c1.584,0,2.664-0.72,2.664-1.908c0-1.008-0.684-1.548-2.16-2.124l-2.844-1.08c-2.052-0.756-3.708-2.34-3.708-4.788c0-3.528,3.312-5.148,6.516-5.148c1.728,0,3.42,0.288,5.22,1.08c0.288,0.144,0.432,0.288,0.432,0.504c0,0.108-0.036,0.216-0.072,0.36l-0.612,1.944c-0.072,0.252-0.252,0.396-0.504,0.396c-0.108,0-0.252-0.036-0.36-0.072c-1.188-0.468-2.736-0.864-3.888-0.864c-1.512,0-2.268,0.828-2.268,1.656c0,0.792,0.396,1.296,1.764,1.836l3.24,1.332c1.908,0.792,3.42,2.268,3.42,4.608z M194.5024,110.692c0,5.184-3.168,9.18-8.784,9.18c-5.868,0-8.568-3.96-8.568-9.216c0-5.184,3.168-9.144,8.784-9.144c5.868,0,8.568,3.888,8.568,9.18z M190.0024,110.692c0-2.952-0.936-5.76-4.104-5.76c-3.204,0-4.248,2.772-4.248,5.652c0,2.952,0.9,5.868,4.104,5.868c3.168,0,4.248-2.808,4.248-5.76z M226.2004,118.54c0,0.648-0.252,0.9-0.864,0.9l-2.52,0c-0.648,0-0.936-0.252-0.936-0.9l0-9.864c0-1.944-0.504-3.42-2.7-3.42c-1.368,0-2.952,0.72-4.068,1.62c0.072,0.324,0.144,5.148,0.144,5.652l0,6.012c0,0.648-0.252,0.9-0.864,0.9l-2.376,0c-0.648,0-0.936-0.252-0.936-0.9l0-9.864c0-1.908-0.396-3.42-2.592-3.42c-1.404,0-2.844,0.792-3.996,1.8l0,11.484c0,0.648-0.288,0.9-0.9,0.9l-2.52,0c-0.648,0-0.936-0.252-0.936-0.9l0-15.732c0-0.576,0.324-0.828,0.864-0.828l2.34,0c0.54,0,0.864,0.18,0.9,0.684l0.036,0.9c1.476-1.296,3.42-2.052,5.292-2.052c2.196,0,3.744,0.972,4.572,2.34c1.62-1.548,3.96-2.34,6.156-2.34c2.628,0,4.284,1.296,5.04,2.7c0.684,1.332,0.864,2.916,0.864,5.22l0,9.108z M248.1424,110.656c0,0.864-0.288,1.044-1.188,1.044l-10.548,0c0.288,2.772,2.304,4.68,5.148,4.68c1.512,0,3.096-0.36,4.428-0.864c0.144-0.036,0.252-0.108,0.396-0.108c0.252,0,0.432,0.144,0.504,0.432l0.504,1.836c0.036,0.18,0.072,0.324,0.072,0.432c0,0.252-0.144,0.432-0.576,0.612c-1.764,0.792-4.176,1.152-6.048,1.152c-5.652,0-9-3.6-9-9.216c0-5.4,3.564-9.144,8.928-9.144c2.196,0,3.996,0.828,5.256,2.16c1.656,1.728,2.124,3.996,2.124,6.444l0,0.54z M243.8584,108.856l0-0.396c-0.072-1.872-1.152-3.6-3.348-3.6c-2.34,0-3.744,1.872-4.032,3.996l7.38,0z M270.1204,110.476c0,2.736-0.828,5.22-2.34,6.984c-1.332,1.512-3.204,2.448-5.544,2.448c-1.656,0-3.312-0.612-4.356-1.692l0,8.064c0,0.72-0.324,0.936-0.936,0.936l-2.52,0c-0.576,0-0.864-0.324-0.864-0.936l0-23.472c0-0.612,0.288-0.828,0.864-0.828l2.16,0c0.612,0,0.936,0.144,0.972,0.684l0.036,0.972c1.044-1.188,3.096-2.088,5.04-2.088c2.376,0,4.032,0.9,5.22,2.196c1.548,1.692,2.268,4.212,2.268,6.732z M265.5844,110.692c0-1.692-0.324-3.168-1.044-4.176c-0.684-0.972-1.692-1.476-2.952-1.476c-1.332,0-2.988,0.864-3.708,1.764l0,7.848c0.72,0.972,2.16,1.764,3.528,1.764c1.26,0,2.268-0.576,2.88-1.332c0.9-1.116,1.296-2.628,1.296-4.392z M285.6184,102.124c0,0.108,0,0.216-0.036,0.324l-0.396,2.556c-0.036,0.324-0.216,0.468-0.504,0.468l-0.144,0c-0.288-0.072-0.648-0.108-0.972-0.108c-1.224,0-2.556,0.648-3.456,1.728l0,11.448c0,0.576-0.252,0.9-0.864,0.9l-2.628,0c-0.576,0-0.864-0.288-0.864-0.9l0-11.232l0-4.428c0-0.72,0.36-0.9,0.9-0.9l2.304,0c0.576,0,0.9,0.18,0.9,0.684l0.036,1.152c1.116-1.404,2.34-2.304,4.356-2.304c0.288,0,0.684,0.072,1.008,0.144c0.252,0.072,0.36,0.18,0.36,0.468z M295.1764,97.408c0,1.404-1.224,2.268-2.412,2.268s-2.448-0.792-2.448-2.232s1.188-2.304,2.448-2.304c1.224,0,2.412,0.828,2.412,2.268z M294.9604,118.54c0,0.648-0.288,0.9-0.9,0.9l-2.52,0c-0.648,0-0.936-0.252-0.936-0.9l0-15.732c0-0.612,0.36-0.828,0.936-0.828l2.52,0c0.576,0,0.9,0.18,0.9,0.828l0,15.732z M314.9944,118.216c0,0.288-0.18,0.432-0.504,0.576c-1.728,0.792-3.312,1.08-5.22,1.08c-5.544,0-8.604-3.456-8.604-9c0-5.58,3.348-9.36,8.928-9.36c1.62,0,3.312,0.324,4.824,1.008c0.288,0.144,0.432,0.216,0.432,0.504c0,0.108-0.036,0.324-0.072,0.432l-0.468,1.908c-0.072,0.324-0.216,0.504-0.432,0.504c-0.108,0-0.252-0.072-0.396-0.144c-1.044-0.432-2.196-0.792-3.456-0.792c-3.096,0-4.86,2.196-4.86,5.724c0,3.456,1.584,5.832,4.68,5.832c1.548,0,2.52-0.288,3.78-0.792c0.108-0.036,0.252-0.108,0.36-0.108c0.216,0,0.36,0.18,0.432,0.432l0.468,1.584c0.072,0.252,0.108,0.468,0.108,0.612z M335.3524,110.656c0,0.864-0.288,1.044-1.188,1.044l-10.548,0c0.288,2.772,2.304,4.68,5.148,4.68c1.512,0,3.096-0.36,4.428-0.864c0.144-0.036,0.252-0.108,0.396-0.108c0.252,0,0.432,0.144,0.504,0.432l0.504,1.836c0.036,0.18,0.072,0.324,0.072,0.432c0,0.252-0.144,0.432-0.576,0.612c-1.764,0.792-4.176,1.152-6.048,1.152c-5.652,0-9-3.6-9-9.216c0-5.4,3.564-9.144,8.928-9.144c2.196,0,3.996,0.828,5.256,2.16c1.656,1.728,2.124,3.996,2.124,6.444l0,0.54z M331.0684,108.856l0-0.396c-0.072-1.872-1.152-3.6-3.348-3.6c-2.34,0-3.744,1.872-4.032,3.996l7.38,0z M345.1984,117.496c0,1.476-1.332,2.412-2.556,2.412c-1.26,0-2.556-0.864-2.556-2.376c0-1.548,1.224-2.448,2.556-2.448c1.296,0,2.556,0.9,2.556,2.412z M363.9364,118.216c0,0.288-0.18,0.432-0.504,0.576c-1.728,0.792-3.312,1.08-5.22,1.08c-5.544,0-8.604-3.456-8.604-9c0-5.58,3.348-9.36,8.928-9.36c1.62,0,3.312,0.324,4.824,1.008c0.288,0.144,0.432,0.216,0.432,0.504c0,0.108-0.036,0.324-0.072,0.432l-0.468,1.908c-0.072,0.324-0.216,0.504-0.432,0.504c-0.108,0-0.252-0.072-0.396-0.144c-1.044-0.432-2.196-0.792-3.456-0.792c-3.096,0-4.86,2.196-4.86,5.724c0,3.456,1.584,5.832,4.68,5.832c1.548,0,2.52-0.288,3.78-0.792c0.108-0.036,0.252-0.108,0.36-0.108c0.216,0,0.36,0.18,0.432,0.432l0.468,1.584c0.072,0.252,0.108,0.468,0.108,0.612z M385.3384,110.692c0,5.184-3.168,9.18-8.784,9.18c-5.868,0-8.568-3.96-8.568-9.216c0-5.184,3.168-9.144,8.784-9.144c5.868,0,8.568,3.888,8.568,9.18z M380.8384,110.692c0-2.952-0.936-5.76-4.104-5.76c-3.204,0-4.248,2.772-4.248,5.652c0,2.952,0.9,5.868,4.104,5.868c3.168,0,4.248-2.808,4.248-5.76z M417.0364,118.54c0,0.648-0.252,0.9-0.864,0.9l-2.52,0c-0.648,0-0.936-0.252-0.936-0.9l0-9.864c0-1.944-0.504-3.42-2.7-3.42c-1.368,0-2.952,0.72-4.068,1.62c0.072,0.324,0.144,5.148,0.144,5.652l0,6.012c0,0.648-0.252,0.9-0.864,0.9l-2.376,0c-0.648,0-0.936-0.252-0.936-0.9l0-9.864c0-1.908-0.396-3.42-2.592-3.42c-1.404,0-2.844,0.792-3.996,1.8l0,11.484c0,0.648-0.288,0.9-0.9,0.9l-2.52,0c-0.648,0-0.936-0.252-0.936-0.9l0-15.732c0-0.576,0.324-0.828,0.864-0.828l2.34,0c0.54,0,0.864,0.18,0.9,0.684l0.036,0.9c1.476-1.296,3.42-2.052,5.292-2.052c2.196,0,3.744,0.972,4.572,2.34c1.62-1.548,3.96-2.34,6.156-2.34c2.628,0,4.284,1.296,5.04,2.7c0.684,1.332,0.864,2.916,0.864,5.22l0,9.108z"/></svg>
